PathFileType	4	(X/Y/Z)	/Users/niels/Desktop/University/Third Semester/Perception and Action/Exam/Gymnastics Motion Tracking/Code for Gym Tracking/Analyzed Data/Webcam_Backflip/id2_4_pure_Sports2D/id2_4_pure_Sports2D_px_person00.trc
DataRate	CameraRate	NumFrames	NumMarkers	Units	OrigDataRate	OrigDataStartFrame	OrigNumFrames
29.87551867219917	29.87551867219917	11	22	m	29.87551867219917	210	241
Frame#	Time	Hip			RHip			RKnee			RAnkle			RBigToe			RSmallToe			RHeel			LHip			LKnee			LAnkle			LBigToe			LSmallToe			LHeel			Neck			Head			Nose			RShoulder			RElbow			RWrist			LShoulder			LElbow			LWrist		
		X1	Y1	Z1	X2	Y2	Z2	X3	Y3	Z3	X4	Y4	Z4	X5	Y5	Z5	X6	Y6	Z6	X7	Y7	Z7	X8	Y8	Z8	X9	Y9	Z9	X10	Y10	Z10	X11	Y11	Z11	X12	Y12	Z12	X13	Y13	Z13	X14	Y14	Z14	X15	Y15	Z15	X16	Y16	Z16	X17	Y17	Z17	X18	Y18	Z18	X19	Y19	Z19	X20	Y20	Z20	X21	Y21	Z21	X22	Y22	Z22
210	7.029166666666667	0.7465651292489146	-0.5862131491711873	0.0	0.7392320532092577	-0.5841724852304175	0.0	0.7403057560068417	-0.6927735602387902	0.0	0.7113914010389097	-0.8130316235092764	0.0	0.7488405373702539	-0.834825584205804	0.0	0.7370040822832777	-0.8367350615016071	0.0	0.7002098631569575	-0.8251166406224946	0.0	0.7565933381976393	-0.5830114862116527	0.0	0.7545608879055614	-0.6909592557653987	0.0	0.7356419361114909	-0.8023566099518189	0.0	0.7785167008780127	-0.8169234232073985	0.0	0.7745443649240207	-0.8135050626118919	0.0	0.730550781830568	-0.8172385553850873	0.0	0.7440282784678156	-0.4134809490939201	0.0	0.7651153420544936	-0.33960389915289774	0.0	0.7827083575907323	-0.3793743117978861	0.0	0.7249686306923616	-0.4406788852825852	0.0	0.7220449877531117	-0.5230938569111491	0.0	0.7498353545972916	-0.5968603949497776	0.0	0.7465000667072397	-0.4394413909936914	0.0	0.7448657454392582	-0.518882906632992	0.0	0.765532072400781	-0.5870829302679388	0.0
211	7.062638888888889	0.7474566909573328	-0.5823418855258178	0.0	0.7398108173278292	-0.5802085883002994	0.0	0.7408961723152521	-0.6892638118289217	0.0	0.7122212355603056	-0.8096567567766028	0.0	0.7489679559786739	-0.8314861647214269	0.0	0.7367374744258444	-0.8335777804502266	0.0	0.7008868737507573	-0.8225705065518758	0.0	0.7570140045481722	-0.5792703325001883	0.0	0.7554118381876476	-0.6878022939723604	0.0	0.7360457853142268	-0.7991954027394256	0.0	0.7773908858240645	-0.8148278168204754	0.0	0.7740345935320322	-0.811361616973802	0.0	0.7311115103783232	-0.814385146318617	0.0	0.7443064834902113	-0.4105848711707667	0.0	0.7656475132985525	-0.3367449442876292	0.0	0.7832646324348558	-0.37660235041644446	0.0	0.7250110281565378	-0.43735532241503555	0.0	0.721168703518352	-0.5197328411701083	0.0	0.7486886126829319	-0.593062459482667	0.0	0.7467238591297559	-0.4364194119682627	0.0	0.7444063448319768	-0.5155973058027666	0.0	0.7652610932110465	-0.5836333806315556	0.0
212	7.096111111111111	0.7484149010415087	-0.5774336391698637	0.0	0.7405781877992494	-0.5752194852175224	0.0	0.7415682753183942	-0.684974628306246	0.0	0.7129761601926506	-0.8054420609436017	0.0	0.7489096347962639	-0.8274047777094131	0.0	0.736231140874031	-0.8296214932311278	0.0	0.7014123246544262	-0.8193414891843831	0.0	0.7574727872110364	-0.5745823420901679	0.0	0.7562975635847159	-0.6838961514941694	0.0	0.7365012771741571	-0.795189293614837	0.0	0.7761324937904397	-0.8119105923612182	0.0	0.773562046275964	-0.8084162175562203	0.0	0.7317509996467702	-0.8107099225872442	0.0	0.7445461543439993	-0.40690418114117705	0.0	0.7662978171377547	-0.33309631169659326	0.0	0.7837306429114141	-0.3730536582489076	0.0	0.7250596973264631	-0.4331074636881635	0.0	0.720397080906121	-0.5154286046662234	0.0	0.7477310670328984	-0.5882891900236552	0.0	0.7468718780741053	-0.43246773994290244	0.0	0.7438055091867397	-0.5112383351451298	0.0	0.764911203308768	-0.5790152526161487	0.0
213	7.129583333333334	0.749317134053066	-0.5720254015039837	0.0	0.7414373474198253	-0.5698277920529012	0.0	0.7422378138081592	-0.6804084563874871	0.0	0.7135047905717651	-0.8008190663133282	0.0	0.7484916338214849	-0.8230175318511894	0.0	0.7354309100492799	-0.8252044116967088	0.0	0.7017610516673614	-0.8156424796032784	0.0	0.7579755602328018	-0.5694802835814625	0.0	0.7570599468524449	-0.6796738746533177	0.0	0.73693154234858	-0.7907797452308661	0.0	0.7749370103192715	-0.8084372244868561	0.0	0.7731828260177042	-0.8049725850873914	0.0	0.7323776896862944	-0.8066217832618185	0.0	0.7447587599348912	-0.4027993404036898	0.0	0.766982836879533	-0.3290044422438032	0.0	0.7840498655682209	-0.3690469836274275	0.0	0.7252454914474777	-0.42839076834061185	0.0	0.7197242008669572	-0.5106690296634677	0.0	0.7470625962652787	-0.5829994535806294	0.0	0.7468924343680582	-0.42793206343969015	0.0	0.7430091123889115	-0.5061930278524432	0.0	0.7643701538648124	-0.5735141068151397	0.0
214	7.163055555555555	0.7501021776982086	-0.5667490145542025	0.0	0.7423208036449066	-0.5646774784886646	0.0	0.7428757002892971	-0.6760051372526877	0.0	0.7137124441011319	-0.7962023565768377	0.0	0.7476287916667822	-0.818679714895582	0.0	0.7343767065175173	-0.8206620455017818	0.0	0.7019674131832566	-0.811728781014888	0.0	0.7585070353318843	-0.5645442165142339	0.0	0.7576191786413506	-0.6755074261663809	0.0	0.7372827357128596	-0.7864296887961251	0.0	0.773994851583076	-0.8048072132536717	0.0	0.7729263804916416	-0.8014144814472829	0.0	0.7329190234891887	-0.8025470406908948	0.0	0.7449611698201881	-0.3986529060847363	0.0	0.7676187365179118	-0.3248436427785849	0.0	0.7842417543023152	-0.36494128905433704	0.0	0.7256759819887095	-0.42368894641341015	0.0	0.7191058615359294	-0.5059522844892097	0.0	0.7467587107413207	-0.5776909739675085	0.0	0.7467404637851618	-0.423221857828451	0.0	0.7420083217532216	-0.5009525530155653	0.0	0.7636665351077817	-0.5675460812570424	0.0
215	7.196527777777778	0.7507688746692169	-0.5621767939380629	0.0	0.7431922863846047	-0.5602741814797841	0.0	0.7434528433840668	-0.6721155779317566	0.0	0.713624253714039	-0.79197929349867	0.0	0.7464525306152044	-0.8146855018942496	0.0	0.7332559799798195	-0.8163552383629361	0.0	0.7020963123018508	-0.807941006338171	0.0	0.7590661148894668	-0.5602663148281748	0.0	0.757985867177217	-0.6717315435602291	0.0	0.7375626094052197	-0.7825477165680634	0.0	0.773449977618898	-0.8014522132292311	0.0	0.7728163035586119	-0.7981329214587455	0.0	0.7333418221183299	-0.7988624124003414	0.0	0.7451809244626381	-0.39484207427013235	0.0	0.7681534851834527	-0.32099442602948536	0.0	0.7843770803160686	-0.361124971835801	0.0	0.7263553435167841	-0.4194081408641943	0.0	0.7185058874869908	-0.5016852243361699	0.0	0.7468522135700226	-0.5728489801649871	0.0	0.7464410713794916	-0.41874914361826276	0.0	0.7409190134214266	-0.49604130201599833	0.0	0.763013926233165	-0.5616802244219157	0.0
216	7.23	0.7513336517799601	-0.5586616871208705	0.0	0.7440024599949441	-0.5568955443599786	0.0	0.7439218953857736	-0.6690075712242037	0.0	0.7133828909635908	-0.7885062066336221	0.0	0.7452465009591239	-0.811343407420893	0.0	0.7323243202057171	-0.8126892806407716	0.0	0.702230294052802	-0.804679222605241	0.0	0.7596911350839268	-0.5569420965663625	0.0	0.7582094096306482	-0.6686613529565034	0.0	0.7378299338800955	-0.7794643141489267	0.0	0.7733314051611601	-0.7987124168420746	0.0	0.7728664352318663	-0.7954437042880226	0.0	0.7336618256274684	-0.7958711834255037	0.0	0.7454401590315357	-0.3916904177657147	0.0	0.7685667209164124	-0.31780155632502727	0.0	0.784533206906244	-0.3579548777327788	0.0	0.7271884020036624	-0.4158174450415249	0.0	0.7179261056263312	-0.4981454097744088	0.0	0.747319679288453	-0.5688769454723719	0.0	0.7461024236282314	-0.414869762385864	0.0	0.7399929593782006	-0.49189929199072224	0.0	0.762704805474139	-0.5565131952598698	0.0
217	7.263472222222222	0.7517926085614642	-0.5563377178993237	0.0	0.7446879144839856	-0.5546381016776478	0.0	0.7442682617063455	-0.6668550962060676	0.0	0.7131572745772867	-0.7860613311767991	0.0	0.7442851881969342	-0.808956020447655	0.0	0.7317484103019973	-0.8100529177741607	0.0	0.7024283536923815	-0.8022998761692394	0.0	0.7604073448554951	-0.5546936172359929	0.0	0.7583404735604358	-0.6665218236330688	0.0	0.7381269092333872	-0.7773932130811719	0.0	0.7735445390295029	-0.7967830084229048	0.0	0.7730668746427336	-0.7935390817752829	0.0	0.7339057355729515	-0.7937923901060463	0.0	0.7457406706933928	-0.3894200263984816	0.0	0.7688662359021676	-0.31551558005873515	0.0	0.7847715265307788	-0.35569142797604086	0.0	0.7280807554058	-0.41308224471587957	0.0	0.7174203275913902	-0.49549513130439005	0.0	0.7480760731448753	-0.5660388448705593	0.0	0.7458620133567851	-0.41187211203362517	0.0	0.7395297498909464	-0.488816753874556	0.0	0.7629694049153459	-0.5525233824005809	0.0
218	7.296944444444445	0.7521211265885067	-0.5552260821014753	0.0	0.7452195011889333	-0.5535198691126807	0.0	0.7445256384866751	-0.6657411590434538	0.0	0.7130662421872418	-0.7848061644078218	0.0	0.7437490302771113	-0.8077257350159385	0.0	0.7315501678220419	-0.8087031516335478	0.0	0.7026787723194818	-0.8010366190071002	0.0	0.7611622765359584	-0.5535602116950921	0.0	0.7584345993525767	-0.6654040617160809	0.0	0.7384359408507241	-0.7764160732328316	0.0	0.7739516346875036	-0.7957679452366817	0.0	0.7733916476753113	-0.792532151098732	0.0	0.7340767077751579	-0.7927677928694608	0.0	0.7460803603532383	-0.38813008184820524	0.0	0.7690995464661723	-0.31425944793738547	0.0	0.7851224690168006	-0.3544694364062317	0.0	0.7289994602020644	-0.4113307037729571	0.0	0.7170711350333789	-0.4938225936162419	0.0	0.748980219652211	-0.5644422927881316	0.0	0.7458200475222192	-0.4099773934453393	0.0	0.7397212763620533	-0.4869629560945472	0.0	0.7638818368236914	-0.5500134782370942	0.0
219	7.330416666666666	0.7523161662491947	-0.5552692703887919	0.0	0.7456219359841721	-0.5535028220696221	0.0	0.7447434909575947	-0.6656694802067747	0.0	0.7131649721596967	-0.7847851761686043	0.0	0.7437149866304973	-0.8077079377931741	0.0	0.7316659043494501	-0.8087045217831698	0.0	0.7029095320363538	-0.8009840168829496	0.0	0.7618261979190671	-0.5535175119613872	0.0	0.7585398296100082	-0.6653093812571468	0.0	0.7386952685694167	-0.776528548711641	0.0	0.7744524894438262	-0.7957368002985772	0.0	0.7738185878281232	-0.7925081367849265	0.0	0.7341592042659162	-0.7928705351096598	0.0	0.7464677194086977	-0.38783009448782646	0.0	0.7693491337781094	-0.3140535843431662	0.0	0.7855772280583895	-0.3543229533793603	0.0	0.7299367202470166	-0.41066299177919163	0.0	0.7169586409677468	-0.49318504149820463	0.0	0.749869998894615	-0.5640684371008728	0.0	0.7459986855864701	-0.4093159158604824	0.0	0.7405351365501438	-0.4864268372286783	0.0	0.7653231399454041	-0.5491122072907083	0.0
220	7.363888888888889	0.7524266677300308	-0.5563231661777983	0.0	0.7459478847395384	-0.5544843580941851	0.0	0.7449718552372893	-0.6665570483834695	0.0	0.7134359208013524	-0.785927920496312	0.0	0.7441547898643751	-0.8088443611483922	0.0	0.7320208144830421	-0.8099650732754194	0.0	0.7030360304285659	-0.8020974776043974	0.0	0.762247459155817	-0.5544703813297512	0.0	0.7586757329703216	-0.6661781261903487	0.0	0.7388550676173837	-0.7776680694604486	0.0	0.7750106430978247	-0.7967006511908478	0.0	0.7743277525705411	-0.7934973035926948	0.0	0.7341419317592526	-0.7940821967927101	0.0	0.7469135394063507	-0.388502254705607	0.0	0.7696843276257085	-0.3148675992099029	0.0	0.786116411244664	-0.35523177323307503	0.0	0.7308709107740138	-0.41112884321666454	0.0	0.7171597000432804	-0.49361575033673216	0.0	0.7506291705447505	-0.5648289638046649	0.0	0.7463466612231056	-0.40990943799491203	0.0	0.7417356773300282	-0.48721738451500957	0.0	0.7670257513064148	-0.5498015246194858	0.0
